<svg xmlns="http://www.w3.org/2000/svg" xmlns:xlink="http://www.w3.org/1999/xlink" viewBox="0 0 235.87 31.44"><defs><style>.cls-1{fill:none;stroke:#0c163f;stroke-miterlimit:10;}.cls-2{fill:#0c163f;}.cls-3{fill:url(#linear-gradient);}.cls-4{fill:url(#linear-gradient-2);}</style><linearGradient id="linear-gradient" y1="18.5" x2="30.76" y2="18.5" gradientUnits="userSpaceOnUse"><stop offset="0.08" stop-color="#3250fc"/><stop offset="0.18" stop-color="#3b4cfb"/><stop offset="0.33" stop-color="#5542f9"/><stop offset="0.52" stop-color="#7e32f6"/><stop offset="0.75" stop-color="#b71cf2"/><stop offset="1" stop-color="#ff00ec"/></linearGradient><linearGradient id="linear-gradient-2" x1="0.02" y1="7.09" x2="22.98" y2="7.09" xlink:href="#linear-gradient"/></defs><g id="Layer_2" data-name="Layer 2"><g id="Layer_1-2" data-name="Layer 1"><line class="cls-1" x1="169.28" y1="4.97" x2="169.28" y2="25.54"/><path class="cls-2" d="M45.05,8.14H39.89a1.29,1.29,0,1,0,0,2.58h5.16a2.29,2.29,0,1,1,0,4.57H39.89a1.29,1.29,0,0,0-1.29,1.29v4.67a1.29,1.29,0,0,0,2.58,0V17.86h3.87a4.86,4.86,0,1,0,0-9.72Z"/><path class="cls-2" d="M150.29,8.14a6.16,6.16,0,0,0-6.16,6.16v7.05a1.29,1.29,0,0,0,2.58,0v-7a3.59,3.59,0,0,1,7.17,0v7.05a1.29,1.29,0,1,0,2.58,0v-7A6.17,6.17,0,0,0,150.29,8.14Z"/><path class="cls-2" d="M61.15,8.14a7.08,7.08,0,1,0,7.08,7.08A7.09,7.09,0,0,0,61.15,8.14Zm0,11.58a4.5,4.5,0,1,1,4.5-4.5A4.51,4.51,0,0,1,61.15,19.72Z"/><path class="cls-2" d="M114.64,8.14a7.08,7.08,0,1,0,7.08,7.08A7.09,7.09,0,0,0,114.64,8.14Zm0,11.58a4.5,4.5,0,1,1,4.5-4.5A4.51,4.51,0,0,1,114.64,19.72Z"/><path class="cls-2" d="M132.69,8.14a7.08,7.08,0,1,0,7.08,7.08A7.09,7.09,0,0,0,132.69,8.14Zm0,11.58a4.5,4.5,0,1,1,4.5-4.5A4.51,4.51,0,0,1,132.69,19.72Z"/><path class="cls-2" d="M88.27,8.2a1.24,1.24,0,0,0-1,.08,1.27,1.27,0,0,0-.64.76l-2.44,7.73L81.71,9a.08.08,0,0,0,0,0l0,0a.5.5,0,0,0,0-.13l-.05-.08,0,0-.06-.08-.07-.07,0,0-.08-.07-.08,0,0,0-.1-.06-.09,0-.06,0-.07,0h0l-.09,0h-.06l-.11,0h-.32l-.17,0v.06h0l0-.06-.06,0,0,0h0l-.11,0-.08.06-.05,0-.07,0-.09.08,0,0-.06.07-.06.09,0,0a.35.35,0,0,0-.05.08l0,.11V9a.14.14,0,0,0,0,.06l-2.44,7.73L74.32,9a1.29,1.29,0,0,0-2.45.79L75.6,21.4a1.29,1.29,0,0,0,2.46,0l2.44-7.73L83,21.4a1.29,1.29,0,0,0,2.46,0L89.11,9.82A1.29,1.29,0,0,0,88.27,8.2Z"/><path class="cls-2" d="M103,8.14H94.51a1.29,1.29,0,0,0,0,2.58h3V21.31a1.29,1.29,0,1,0,2.58,0V10.72h3a1.29,1.29,0,0,0,0-2.58Z"/><path class="cls-3" d="M30.58,6.22l0-.08h0a1.32,1.32,0,0,0-1.08-.57,1.34,1.34,0,0,0-.65.17L24.46,8.26l-5.54,3.21L2.86,20.77A5.69,5.69,0,0,0,.2,24.24a5.71,5.71,0,0,0,4,7,5.81,5.81,0,0,0,1.49.2,5.61,5.61,0,0,0,2.84-.77l14.59-8.4a5.88,5.88,0,0,0,3-4.62c0-.15,0-.3,0-.44a4.46,4.46,0,0,0-1.61-3.56l-.08-.07-.08.05-2.17,1.25-.19.11.17.13c1,.83,1.4,1.39,1.37,2.08a.38.38,0,0,0,0,.1v.16a3,3,0,0,1-.38,1.24A3.94,3.94,0,0,1,21.85,20L7.28,28.43a3.18,3.18,0,0,1-1.57.42A3.15,3.15,0,0,1,3,27.28a3.14,3.14,0,0,1-.31-2.36A3.1,3.1,0,0,1,4.16,23L24.59,11.18l.15-.08,5.23-3L30.11,8a1.2,1.2,0,0,0,.26-.21A1.28,1.28,0,0,0,30.58,6.22Z"/><path class="cls-4" d="M.72,11.55A5.18,5.18,0,0,0,3.94,14a5.8,5.8,0,0,0,1.31.16,5.38,5.38,0,0,0,2.69-.73l8.11-4.65,2-1.14,3.54-2,.74-.43a1.3,1.3,0,0,0-.65-2.42,1.34,1.34,0,0,0-.65.17l-.75.43-3.54,2-2,1.15L6.65,11.2a3,3,0,0,1-1.41.38,2.44,2.44,0,0,1-.66-.09A2.56,2.56,0,0,1,3,10.26,2.66,2.66,0,0,1,2.61,9V4.84A2.26,2.26,0,0,1,3.79,2.9a2.32,2.32,0,0,1,1.12-.3A2.2,2.2,0,0,1,6,2.89l5,3.37.08.06.07-.05L13.35,5l.2-.12-.19-.13-.23-.16L7.42.71l-.08,0A4.9,4.9,0,0,0,4.91,0,4.79,4.79,0,0,0,2.5.65,4.8,4.8,0,0,0,0,4.82V9.1A5.29,5.29,0,0,0,.72,11.55Z"/><path class="cls-2" d="M183.35,5.7H181.9V4.88h3.82V5.7h-1.45V9.52h-.92Z"/><path class="cls-2" d="M189.72,7.46V9.52h-.88V7.68a.64.64,0,0,0-.67-.7.68.68,0,0,0-.72.7V9.52h-.88V4.71h.88V6.59a1.26,1.26,0,0,1,1-.42A1.22,1.22,0,0,1,189.72,7.46Z"/><path class="cls-2" d="M193.83,9.28a2.58,2.58,0,0,1-1.24.31,1.7,1.7,0,0,1-1.9-1.71,1.63,1.63,0,0,1,1.68-1.71,1.55,1.55,0,0,1,1.56,2h-2.37c.09.46.5.68,1,.68a2.7,2.7,0,0,0,1.11-.25Zm-.69-1.73a.69.69,0,0,0-.75-.64.75.75,0,0,0-.82.64Z"/><path class="cls-2" d="M200.13,4.88h1l-1.74,4.64h-1.17l-1.74-4.64h1l1.34,3.69Z"/><path class="cls-2" d="M201.87,5.18a.49.49,0,0,1,.51-.5.48.48,0,0,1,.5.5.51.51,0,1,1-1,0Zm.07,4.34V6.24h.88V9.52Z"/><path class="cls-2" d="M205.55,7.58c.65.12,1,.41,1,1s-.55,1-1.39,1a3,3,0,0,1-1.26-.24l.09-.72a3.05,3.05,0,0,0,1.1.23c.43,0,.61-.09.61-.28s-.14-.26-.52-.33l-.39-.08c-.64-.1-.94-.43-.94-1s.56-1,1.44-1a2.89,2.89,0,0,1,1.11.2l-.08.72a3.06,3.06,0,0,0-1-.19c-.43,0-.64.11-.64.3s.14.24.54.32Z"/><path class="cls-2" d="M209.67,6.24h.87V8.17A1.42,1.42,0,0,1,209,9.59a1.39,1.39,0,0,1-1.53-1.4V6.24h.88V8.08a.64.64,0,0,0,.65.7.65.65,0,0,0,.68-.7Z"/><path class="cls-2" d="M211.51,7.87a1.6,1.6,0,0,1,1.58-1.7,1.3,1.3,0,0,1,1.07.46l0-.39H215V9.52h-.85l0-.4a1.28,1.28,0,0,1-1.07.47A1.61,1.61,0,0,1,211.51,7.87ZM213.26,7a.87.87,0,0,0-.88.92.88.88,0,0,0,.88.94.89.89,0,0,0,.89-.94A.88.88,0,0,0,213.26,7Z"/><path class="cls-2" d="M217.09,9.52h-.88V4.71h.88Z"/><path class="cls-2" d="M186.27,17a3.5,3.5,0,0,1-1.59.35,2.4,2.4,0,1,1,.06-4.78,3.81,3.81,0,0,1,1.46.3l-.08.83a3.14,3.14,0,0,0-1.3-.28,1.56,1.56,0,1,0,0,3.09,2.68,2.68,0,0,0,1.34-.33Z"/><path class="cls-2" d="M188.73,14A1.71,1.71,0,1,1,187,15.67,1.7,1.7,0,0,1,188.73,14Zm0,2.63a.92.92,0,1,0-.88-.92A.87.87,0,0,0,188.73,16.59Z"/><path class="cls-2" d="M194.44,14.54a1.33,1.33,0,0,1,1.13-.58,1.21,1.21,0,0,1,1.29,1.29v2.06H196V15.47a.63.63,0,0,0-.65-.7.67.67,0,0,0-.72.68v1.86h-.88V15.47a.64.64,0,0,0-.65-.7.68.68,0,0,0-.72.7v1.84h-.88V14h.83l0,.38a1.24,1.24,0,0,1,1-.45A1.2,1.2,0,0,1,194.44,14.54Z"/><path class="cls-2" d="M201,14.54A1.36,1.36,0,0,1,202.1,14a1.22,1.22,0,0,1,1.29,1.29v2.06h-.88V15.47a.63.63,0,0,0-.65-.7.67.67,0,0,0-.72.68v1.86h-.88V15.47a.64.64,0,0,0-.66-.7.68.68,0,0,0-.71.7v1.84H198V14h.83l0,.38a1.24,1.24,0,0,1,1-.45A1.18,1.18,0,0,1,201,14.54Z"/><path class="cls-2" d="M206.72,14h.87V16A1.42,1.42,0,0,1,206,17.38,1.4,1.4,0,0,1,204.5,16V14h.88v1.84a.67.67,0,1,0,1.34,0Z"/><path class="cls-2" d="M211.89,15.25v2.06H211V15.47a.65.65,0,0,0-.68-.7.69.69,0,0,0-.73.7v1.84h-.87V14h.83l0,.38a1.24,1.24,0,0,1,1-.45A1.23,1.23,0,0,1,211.89,15.25Z"/><path class="cls-2" d="M213,13a.51.51,0,1,1,1,0,.49.49,0,0,1-.51.5A.48.48,0,0,1,213,13Zm.06,4.33V14h.88v3.28Z"/><path class="cls-2" d="M216.75,14a2.45,2.45,0,0,1,1,.22l-.08.76a2.19,2.19,0,0,0-.86-.18c-.59,0-1.05.31-1.05.9a.92.92,0,0,0,1,.91,2.12,2.12,0,0,0,.9-.21l.1.78a2.5,2.5,0,0,1-1.06.24,1.71,1.71,0,0,1-1.85-1.71A1.68,1.68,0,0,1,216.75,14Z"/><path class="cls-2" d="M218.54,15.66a1.6,1.6,0,0,1,1.58-1.7,1.29,1.29,0,0,1,1.07.46l0-.39h.86v3.28h-.86l0-.4a1.27,1.27,0,0,1-1.07.47A1.61,1.61,0,0,1,218.54,15.66Zm1.75-.92a.87.87,0,0,0-.88.92.88.88,0,0,0,.88.94.89.89,0,0,0,.9-.94A.88.88,0,0,0,220.29,14.74Z"/><path class="cls-2" d="M224.37,14.76v1.35a.44.44,0,0,0,.49.49,2.22,2.22,0,0,0,.55-.08l.09.73a2.44,2.44,0,0,1-.8.13,1.07,1.07,0,0,1-1.2-1.15V14.76h-.56V14h.56V13h.85v1h1v.73Z"/><path class="cls-2" d="M226.27,13a.49.49,0,0,1,.51-.51.51.51,0,0,1,0,1A.49.49,0,0,1,226.27,13Zm.07,4.33V14h.88v3.28Z"/><path class="cls-2" d="M230,14a1.71,1.71,0,1,1-1.75,1.71A1.7,1.7,0,0,1,230,14Zm0,2.63a.92.92,0,1,0-.88-.92A.87.87,0,0,0,230,16.59Z"/><path class="cls-2" d="M235.87,15.25v2.06H235V15.47a.65.65,0,0,0-.68-.7.69.69,0,0,0-.73.7v1.84h-.87V14h.83l0,.38a1.24,1.24,0,0,1,1-.45A1.23,1.23,0,0,1,235.87,15.25Z"/><path class="cls-2" d="M183.23,23.73V25.1h-.92V20.46h2.15a1.58,1.58,0,0,1,1.69,1.64,1.6,1.6,0,0,1-1.69,1.63Zm0-2.47v1.68h1.12a.81.81,0,0,0,.85-.84.79.79,0,0,0-.85-.84Z"/><path class="cls-2" d="M188,25.1h-.88V20.29H188Z"/><path class="cls-2" d="M189,23.45a1.6,1.6,0,0,1,1.58-1.7,1.31,1.31,0,0,1,1.07.47l0-.4h.85V25.1h-.85l0-.4a1.28,1.28,0,0,1-1.07.47A1.61,1.61,0,0,1,189,23.45Zm1.75-.92a.87.87,0,0,0-.88.92.88.88,0,0,0,.88.94.9.9,0,0,0,.9-.94A.89.89,0,0,0,190.72,22.53Z"/><path class="cls-2" d="M194.8,22.55V23.9a.44.44,0,0,0,.48.49,2.23,2.23,0,0,0,.56-.08l.08.73a2.38,2.38,0,0,1-.79.13A1.07,1.07,0,0,1,193.92,24V22.55h-.55v-.73h.56V20.77h.85v1.05h.95v.73Z"/><path class="cls-2" d="M197.94,22.55V25.1h-.88V22.55h-.58v-.73h.59V21.5a1.22,1.22,0,0,1,1.35-1.28,1.66,1.66,0,0,1,.62.12l-.09.71a1.23,1.23,0,0,0-.44-.08.53.53,0,0,0-.6.58v.27h.94v.73Z"/><path class="cls-2" d="M201.19,21.75a1.71,1.71,0,1,1-1.76,1.71A1.69,1.69,0,0,1,201.19,21.75Zm0,2.63a.92.92,0,1,0-.89-.92A.87.87,0,0,0,201.19,24.38Z"/><path class="cls-2" d="M204.8,22.27a.9.9,0,0,1,.85-.52,1.16,1.16,0,0,1,.43.08l-.07.78a1.23,1.23,0,0,0-.41-.08c-.38,0-.79.21-.79.89V25.1h-.88V21.82h.85Z"/><path class="cls-2" d="M209.9,22.33a1.35,1.35,0,0,1,1.14-.58A1.22,1.22,0,0,1,212.33,23V25.1h-.88V23.27a.63.63,0,0,0-.66-.7.67.67,0,0,0-.72.68V25.1h-.88V23.27a.63.63,0,0,0-.65-.7.68.68,0,0,0-.72.7V25.1H207V21.82h.83l0,.38a1.22,1.22,0,0,1,1-.45A1.18,1.18,0,0,1,209.9,22.33Z"/></g></g></svg>