<?xml version="1.0" encoding="utf-8"?>
<!-- Generator: Adobe Illustrator 23.0.0, SVG Export Plug-In . SVG Version: 6.00 Build 0)  -->
<svg version="1.1" id="Layer_1" xmlns="http://www.w3.org/2000/svg" xmlns:xlink="http://www.w3.org/1999/xlink" x="0px" y="0px"
	 viewBox="0 0 18 18" style="enable-background:new 0 0 18 18;" xml:space="preserve">
<style type="text/css">
	.st0{fill:#0C163F;}
</style>
<path class="st0" d="M17,10.5H1c-0.55,0-1-0.45-1-1v-1c0-0.55,0.45-1,1-1h16c0.55,0,1,0.45,1,1v1C18,10.05,17.55,10.5,17,10.5z"/>
<path class="st0" d="M17,3H4C3.45,3,3,2.55,3,2V1c0-0.55,0.45-1,1-1h13c0.55,0,1,0.45,1,1v1C18,2.55,17.55,3,17,3z"/>
<path class="st0" d="M17,18h-7c-0.55,0-1-0.45-1-1v-1c0-0.55,0.45-1,1-1h7c0.55,0,1,0.45,1,1v1C18,17.55,17.55,18,17,18z"/>
</svg>
